<?xml version="1.0" encoding="UTF-8" standalone="no"?>
<svg
   class="svglite"
   width="504.00pt"
   height="360.00pt"
   viewBox="0 0 504.00 360.00"
   version="1.1"
   id="svg200046"
   sodipodi:docname="bounded_final.svg"
   inkscape:version="1.2.2 (1:1.2.2+202305151915+b0a8486541)"
   inkscape:export-filename="bounded_final.png"
   inkscape:export-xdpi="200"
   inkscape:export-ydpi="200"
   xmlns:inkscape="http://www.inkscape.org/namespaces/inkscape"
   xmlns:sodipodi="http://sodipodi.sourceforge.net/DTD/sodipodi-0.dtd"
   xmlns="http://www.w3.org/2000/svg"
   xmlns:svg="http://www.w3.org/2000/svg">
  <sodipodi:namedview
     id="namedview200048"
     pagecolor="#ffffff"
     bordercolor="#666666"
     borderopacity="1.0"
     inkscape:showpageshadow="2"
     inkscape:pageopacity="0.0"
     inkscape:pagecheckerboard="0"
     inkscape:deskcolor="#d1d1d1"
     inkscape:document-units="pt"
     showgrid="false"
     inkscape:zoom="1.7708333"
     inkscape:cx="312.00001"
     inkscape:cy="199.34118"
     inkscape:window-width="1920"
     inkscape:window-height="1043"
     inkscape:window-x="1920"
     inkscape:window-y="0"
     inkscape:window-maximized="1"
     inkscape:current-layer="svg200046" />
  <defs
     id="defs4">
    <style
       type="text/css"
       id="style2"><![CDATA[
    .svglite line, .svglite polyline, .svglite polygon, .svglite path, .svglite rect, .svglite circle {
      fill: none;
      stroke: #000000;
      stroke-linecap: round;
      stroke-linejoin: round;
      stroke-miterlimit: 10.00;
    }
    .svglite text {
      white-space: pre;
    }
  ]]></style>
    <clipPath
       id="cpMC4wMHw1MDQuMDB8MC4wMHwzNjAuMDA=-3">
      <rect
         x="0"
         y="0"
         width="504"
         height="360"
         id="rect8-6" />
    </clipPath>
    <clipPath
       id="cpMC4wMHw1MDQuMDB8MC4wMHwzNjAuMDA=-7">
      <rect
         x="0"
         y="0"
         width="504"
         height="360"
         id="rect1026202" />
    </clipPath>
    <clipPath
       id="cpMC4wMHw1MDQuMDB8MC4wMHwzNjAuMDA=-5">
      <rect
         x="0"
         y="0"
         width="504"
         height="360"
         id="rect1044934" />
    </clipPath>
    <clipPath
       id="cpMC4wMHw1MDQuMDB8MC4wMHwzNjAuMDA=-35">
      <rect
         x="0"
         y="0"
         width="504"
         height="360"
         id="rect1243478" />
    </clipPath>
    <clipPath
       id="cpMC4wMHw1MDQuMDB8MC4wMHwzNjAuMDA=-36">
      <rect
         x="0"
         y="0"
         width="504"
         height="360"
         id="rect76816" />
    </clipPath>
  </defs>
  <g
     clip-path="url(#cpMC4wMHw1MDQuMDB8MC4wMHwzNjAuMDA=-36)"
     id="g113854"
     inkscape:label="_plotlabels"
     sodipodi:insensitive="true"
     transform="translate(-0.06616942,-0.15259042)">
    <text
       x="46.75"
       y="46.5"
       text-anchor="end"
       style="font-size:11.5px;font-family:'Roboto Condensed';white-space:pre;fill:#4d4d4d"
       textLength="5.6700001"
       lengthAdjust="spacingAndGlyphs"
       id="text113828">0</text>
    <text
       x="46.75"
       y="96.599998"
       text-anchor="end"
       style="font-size:11.5px;font-family:'Roboto Condensed';white-space:pre;fill:#4d4d4d"
       textLength="5.6700001"
       lengthAdjust="spacingAndGlyphs"
       id="text113830">1</text>
    <text
       x="46.75"
       y="146.7"
       text-anchor="end"
       style="font-size:11.5px;font-family:'Roboto Condensed';white-space:pre;fill:#4d4d4d"
       textLength="5.6700001"
       lengthAdjust="spacingAndGlyphs"
       id="text113832">2</text>
    <text
       x="46.75"
       y="196.8"
       text-anchor="end"
       style="font-size:11.5px;font-family:'Roboto Condensed';white-space:pre;fill:#4d4d4d"
       textLength="5.6700001"
       lengthAdjust="spacingAndGlyphs"
       id="text113834">3</text>
    <text
       x="46.75"
       y="246.89"
       text-anchor="end"
       style="font-size:11.5px;font-family:'Roboto Condensed';white-space:pre;fill:#4d4d4d"
       textLength="5.6700001"
       lengthAdjust="spacingAndGlyphs"
       id="text113836">4</text>
    <text
       x="46.75"
       y="296.98999"
       text-anchor="end"
       style="font-size:11.5px;font-family:'Roboto Condensed';white-space:pre;fill:#4d4d4d"
       textLength="5.6700001"
       lengthAdjust="spacingAndGlyphs"
       id="text113838">5</text>
    <text
       x="68.910004"
       y="316.47"
       text-anchor="middle"
       style="font-size:11.5px;font-family:'Roboto Condensed';white-space:pre;fill:#4d4d4d"
       textLength="17.219999"
       lengthAdjust="spacingAndGlyphs"
       id="text113840">-1.0</text>
    <text
       x="165.39"
       y="316.47"
       text-anchor="middle"
       style="font-size:11.5px;font-family:'Roboto Condensed';white-space:pre;fill:#4d4d4d"
       textLength="17.219999"
       lengthAdjust="spacingAndGlyphs"
       id="text113842">-0.5</text>
    <text
       x="261.85999"
       y="316.47"
       text-anchor="middle"
       style="font-size:11.5px;font-family:'Roboto Condensed';white-space:pre;fill:#4d4d4d"
       textLength="14.37"
       lengthAdjust="spacingAndGlyphs"
       id="text113844">0.0</text>
    <text
       x="358.34"
       y="316.47"
       text-anchor="middle"
       style="font-size:11.5px;font-family:'Roboto Condensed';white-space:pre;fill:#4d4d4d"
       textLength="14.37"
       lengthAdjust="spacingAndGlyphs"
       id="text113846">0.5</text>
    <text
       x="454.82001"
       y="316.47"
       text-anchor="middle"
       style="font-size:11.5px;font-family:'Roboto Condensed';white-space:pre;fill:#4d4d4d"
       textLength="14.37"
       lengthAdjust="spacingAndGlyphs"
       id="text113848">1.0</text>
    <text
       x="474.10999"
       y="328.19"
       text-anchor="end"
       style="font-style:normal;font-variant:normal;font-weight:normal;font-stretch:normal;font-size:9px;font-family:'Roboto Condensed';-inkscape-font-specification:'Roboto Condensed, Normal';font-variant-ligatures:normal;font-variant-caps:normal;font-variant-numeric:normal;font-variant-east-asian:normal;text-anchor:end;white-space:pre"
       textLength="16.709999"
       lengthAdjust="spacingAndGlyphs"
       id="text113850"
       transform="matrix(1.9589304,0,0,1,-454.44204,0)"><tspan
         sodipodi:role="line"
         id="tspan584833"
         x="474.10999"
         y="328.19">Skewness</tspan></text>
    <text
       transform="matrix(0,-2.5258318,1,0,36.29,29.644616)"
       text-anchor="end"
       style="font-style:normal;font-variant:normal;font-weight:normal;font-stretch:normal;font-size:9px;font-family:'Roboto Condensed';-inkscape-font-specification:'Roboto Condensed, Normal';font-variant-ligatures:normal;font-variant-caps:normal;font-variant-numeric:normal;font-variant-east-asian:normal;text-anchor:end;white-space:pre"
       textLength="10.9"
       lengthAdjust="spacingAndGlyphs"
       id="text113852"><tspan
         sodipodi:role="line"
         id="tspan584831"
         x="0"
         y="0">Kurtosis</tspan></text>
  </g>
  <path
     style="fill:none;stroke:#000000;stroke-width:0.2;stroke-linecap:butt;stroke-linejoin:miter;stroke-miterlimit:10;stroke-dasharray:0.2, 0.2;stroke-dashoffset:0;stroke-opacity:1"
     d="M 262.04157,307.82747 V 32.69352 l 0.22525,-0.95046"
     id="path2065" />
  <path
     style="fill:none;stroke:#000000;stroke-width:0.2;stroke-linecap:butt;stroke-linejoin:miter;stroke-miterlimit:10;stroke-dasharray:0.2, 0.2;stroke-dashoffset:0;stroke-opacity:1"
     d="m 49.365,93.171481 c 433.52415,0 433.76329,0 433.76329,0"
     id="path583621" />
  <rect
     width="100%"
     height="100%"
     style="stroke: none; fill: none;"
     id="rect6" />
  <defs
     id="defs11">
    <clipPath
       id="cpMC4wMHw1MDQuMDB8MC4wMHwzNjAuMDA=">
      <rect
         x="0.00"
         y="0.00"
         width="504.00"
         height="360.00"
         id="rect8" />
    </clipPath>
  </defs>
  <g
     clip-path="url(#cpMC4wMHw1MDQuMDB8MC4wMHwzNjAuMDA=)"
     id="g13" />
  <defs
     id="defs18">
    <clipPath
       id="cpNDkuNjF8NDc0LjExfDI5Ljg5fDMwNS40Mw==">
      <rect
         x="49.61"
         y="29.89"
         width="424.50"
         height="275.54"
         id="rect15" />
    </clipPath>
  </defs>
  <g
     id="layer1"
     inkscape:label="labels"
     transform="translate(-24.392426,-167.06582)">
    <text
       x="406.57999"
       y="146.53"
       text-anchor="middle"
       style="font-style:normal;font-variant:normal;font-weight:normal;font-stretch:normal;font-size:12.8773px;font-family:'Roboto Condensed';-inkscape-font-specification:'Roboto Condensed, Normal';font-variant-ligatures:normal;font-variant-caps:normal;font-variant-numeric:normal;font-variant-east-asian:normal;text-anchor:middle;white-space:pre;fill:#0d4600;fill-opacity:0.466667;stroke-width:1.00013;stroke-dasharray:none"
       textLength="68.160004"
       lengthAdjust="spacingAndGlyphs"
       id="text582316"
       transform="matrix(0.48332361,0.01424722,0,0.77659382,150.9887,363.64521)"
       inkscape:label="lbl-Metalog4"><tspan
         sodipodi:role="line"
         id="tspan582374"
         x="406.57999"
         y="146.53">Metalog4</tspan></text>
    <path
       style="fill:none;stroke:#0d4600;stroke-width:0.75px;stroke-linecap:butt;stroke-linejoin:miter;stroke-miterlimit:10;stroke-opacity:0.22745098"
       d="m 294.87526,430.08127 36.54515,54.95843 c 17.03096,0.083 5.1104,-0.19612 22.25837,0.28977"
       id="path582372"
       sodipodi:nodetypes="ccc" />
    <text
       x="406.57999"
       y="146.53"
       text-anchor="middle"
       style="font-style:normal;font-variant:normal;font-weight:normal;font-stretch:normal;font-size:12.8773px;font-family:'Roboto Condensed';-inkscape-font-specification:'Roboto Condensed, Normal';font-variant-ligatures:normal;font-variant-caps:normal;font-variant-numeric:normal;font-variant-east-asian:normal;text-anchor:middle;white-space:pre;fill:#252375;fill-opacity:0.964706"
       textLength="68.160004"
       lengthAdjust="spacingAndGlyphs"
       id="text584047"
       transform="matrix(0.45763343,0.01424722,0,0.77659382,140.38295,81.984777)"
       inkscape:label="lbl-Metalog3"><tspan
         sodipodi:role="line"
         id="tspan584051"
         x="406.57999"
         y="146.53">Metalog3</tspan></text>
    <path
       style="fill:none;stroke:#252375;stroke-width:0.75px;stroke-linecap:butt;stroke-linejoin:miter;stroke-miterlimit:10;stroke-opacity:0.502421"
       d="m 292.12107,218.83608 19.00319,-15.17369 c 17.03096,0.083 5.1104,-0.19612 22.25837,0.28977"
       id="path584049"
       sodipodi:nodetypes="ccc" />
    <text
       x="406.57999"
       y="146.53"
       text-anchor="middle"
       style="font-style:normal;font-variant:normal;font-weight:normal;font-stretch:normal;font-size:12.8773px;font-family:'Roboto Condensed';-inkscape-font-specification:'Roboto Condensed, Normal';font-variant-ligatures:normal;font-variant-caps:normal;font-variant-numeric:normal;font-variant-east-asian:normal;text-anchor:middle;white-space:pre;fill:#a4639b;fill-opacity:0.678431"
       textLength="68.160004"
       lengthAdjust="spacingAndGlyphs"
       id="text1945"
       transform="matrix(0.671408,0.01396997,0,0.76148149,230.7345,102.50256)"
       inkscape:label="lbl-Kumaraswamy"><tspan
         sodipodi:role="line"
         id="tspan1943"
         x="406.57999"
         y="146.53">Kumaraswamy</tspan></text>
    <path
       style="fill:none;stroke:#a4639b;stroke-width:0.75px;stroke-linecap:butt;stroke-linejoin:miter;stroke-miterlimit:10;stroke-opacity:0.67843139"
       d="m 469.86241,230.47396 10.75574,-8.6628 c 17.03096,0.083 22.27277,-0.19612 39.42074,0.28977"
       id="path1947"
       sodipodi:nodetypes="ccc" />
    <text
       x="406.57999"
       y="146.53"
       text-anchor="middle"
       style="font-style:normal;font-variant:normal;font-weight:normal;font-stretch:normal;font-size:12.8773px;font-family:'Roboto Condensed';-inkscape-font-specification:'Roboto Condensed, Normal';font-variant-ligatures:normal;font-variant-caps:normal;font-variant-numeric:normal;font-variant-east-asian:normal;text-anchor:middle;white-space:pre;fill:#5e665a;fill-opacity:1"
       textLength="68.160004"
       lengthAdjust="spacingAndGlyphs"
       id="text1242068"
       transform="matrix(0.42296939,0.01634928,0,0.89117415,-15.924419,346.32108)"
       inkscape:label="lbl-JPDB"><tspan
         sodipodi:role="line"
         id="tspan1242066"
         x="406.57999"
         y="146.53">J-QPDB</tspan></text>
    <path
       style="fill:none;stroke:#5e665a;stroke-width:0.75px;stroke-linecap:butt;stroke-linejoin:miter;stroke-miterlimit:10;stroke-opacity:0.502079"
       d="m 125.15052,460.38324 16.60835,24.65646 c 17.03096,0.083 5.1104,-0.19612 22.25837,0.28977"
       id="path1242070"
       sodipodi:nodetypes="ccc" />
    <text
       x="406.57999"
       y="146.53"
       text-anchor="middle"
       style="font-style:normal;font-variant:normal;font-weight:normal;font-stretch:normal;font-size:12.8773px;font-family:'Roboto Condensed';-inkscape-font-specification:'Roboto Condensed, Normal';font-variant-ligatures:normal;font-variant-caps:normal;font-variant-numeric:normal;font-variant-east-asian:normal;text-anchor:middle;white-space:pre;fill:#a4639b;fill-opacity:0.678431"
       textLength="68.160004"
       lengthAdjust="spacingAndGlyphs"
       id="text1419762"
       transform="matrix(0.25303783,0.01757133,0,0.9577862,386.51618,271.47562)"
       inkscape:label="lbl-Beta"><tspan
         sodipodi:role="line"
         id="tspan1419760"
         x="406.57999"
         y="146.53">Beta</tspan></text>
    <path
       style="fill:none;stroke:#a4639b;stroke-width:0.75px;stroke-linecap:butt;stroke-linejoin:miter;stroke-miterlimit:10;stroke-opacity:0.678431;stroke-dasharray:0.75,0.75;stroke-dashoffset:0"
       d="m 469.09435,428.55634 10.75574,-8.6628 c 17.03096,0.083 -3.55518,-0.19612 13.59279,0.28977"
       id="path1419764"
       sodipodi:nodetypes="ccc" />
  </g>
  <path
     style="opacity:0.507032;fill:#708b91;fill-opacity:1;stroke:none;stroke-width:3;stroke-linecap:butt;stroke-linejoin:miter;stroke-dasharray:none;stroke-opacity:0.537169"
     d="m 68.824074,303.43977 34.145316,-0.0704 c 0,0 1.20457,-11.09373 2.3195,-17.8293 0.91832,-5.5478 4.97559,-23.65815 6.8537,-33.02384 1.87811,-9.36569 4.63449,-20.81079 9.57262,-34.33788 4.93815,-13.52709 8.62703,-24.07582 14.04283,-34.36578 5.4158,-10.28996 14.36454,-23.37263 20.26926,-29.64534 5.90473,-6.27271 16.68514,-17.08799 25.66606,-22.60436 8.9809,-5.51635 21.36003,-11.52809 31.38063,-15.51308 10.02061,-3.98499 23.53748,-7.05994 31.34079,-8.74627 7.80331,-1.68633 17.4159,-3.37505 17.4159,-3.37505 0,0 7.10663,1.01954 13.26689,2.29346 6.16026,1.27392 19.84751,4.93904 26.33341,6.75843 5.38637,1.51094 13.2098,4.60461 19.59188,7.51334 6.38208,2.90873 11.23648,5.45585 18.31237,9.74097 7.07588,4.28513 13.70181,9.56839 18.65727,14.00077 3.95687,3.5392 12.67371,13.77151 15.86183,17.92355 4.13183,5.3811 11.28551,16.82082 14.61636,23.39095 3.33084,6.57013 7.10608,15.84662 10.01614,23.14028 2.91007,7.29366 5.62111,15.55918 7.81625,23.90485 2.19515,8.34566 8.09139,33.89211 10.20091,42.63022 2.10953,8.73812 5.19243,28.30914 5.19243,28.30914 l 33.21837,0.0788 -0.25525,-263.096663 -385.905803,0.121438 c -0.631935,87.593445 0.163705,259.785175 0.07034,262.801775 z"
     id="path200331"
     sodipodi:nodetypes="ccsssssssscsszsssssssccccc"
     inkscape:label="jqpdb" />
  <path
     style="opacity:0.467824;fill:#a6f992;fill-opacity:1;stroke:none;stroke-width:1;stroke-linecap:butt;stroke-linejoin:miter;stroke-miterlimit:10;stroke-dasharray:none;stroke-opacity:0.533354"
     d="m 98.045129,121.32613 c 1.02884,-6.41222 3.308621,-17.46778 8.218601,-24.398809 4.90999,-6.931035 8.12327,-11.35077 14.86406,-16.08657 6.7408,-4.735809 13.71817,-9.00993 22.49059,-11.945244 8.77242,-2.935314 24.13798,-8.166382 33.65922,-10.760009 9.52124,-2.593626 69.87004,-11.538598 74.17285,-12.320036 4.30282,-0.781438 11.04672,-4.412794 11.04672,-4.412794 0,0 5.3756,3.22673 12.02127,4.45747 6.64567,1.23074 43.46605,6.393952 49.41645,7.746408 5.95041,1.352456 42.5279,9.746656 47.63455,11.792401 5.10666,2.045745 18.95346,8.04083 24.8352,10.969202 5.88175,2.928374 13.40126,10.025939 16.82206,13.823654 3.42081,3.797715 7.22027,10.536967 9.25158,15.136237 2.03131,4.59926 3.40933,25.48039 4.50692,32.63656 1.0976,7.15617 2.83256,36.54563 2.09925,41.93066 -0.73332,5.38503 0.1733,11.89235 -2.21702,18.10257 -2.39031,6.21022 -8.35157,13.78456 -13.18298,18.85696 -4.83139,5.0724 -18.36748,16.02833 -25.45612,20.30811 -7.08863,4.27978 -24.08699,11.10397 -30.74248,13.82488 -6.65549,2.72092 -21.57901,7.60231 -28.84757,8.85429 -7.26855,1.25197 -19.16874,3.03398 -28.73259,3.99013 -9.56384,0.95614 -27.79483,2.35126 -34.97022,2.18975 -7.17539,-0.16151 -36.76444,-1.07213 -45.38868,-1.89417 -8.53119,-0.81318 -25.65766,-4.39787 -32.99218,-6.1463 -7.33453,-1.74843 -29.67943,-9.11865 -35.31042,-12.31723 -5.631,-3.19857 -15.95991,-8.04558 -21.35784,-12.21106 -5.39793,-4.16547 -12.7309,-9.99833 -18.61916,-15.40137 -5.88825,-5.40305 -8.74356,-11.39644 -11.326929,-16.18778 -2.583362,-4.79133 -3.957562,-14.05512 -5.152152,-15.82081 -0.0433,-19.33151 0.49814,-44.54355 3.25702,-64.7171 z"
     id="path1022285"
     sodipodi:nodetypes="cssssscssssssssssssssssssssscc"
     inkscape:label="metalog4" />
  <path
     style="opacity:0.36862172;fill:#d23fa5;fill-opacity:1;stroke:#2b282b;stroke-width:0.5;stroke-linecap:butt;stroke-linejoin:miter;stroke-miterlimit:10;stroke-dasharray:none;stroke-opacity:0.67843139"
     d="m 77.769856,303.43804 c 0,0 1.671725,-28.56538 2.301776,-38.48214 0.855014,-13.4576 5.770274,-40.54358 8.25468,-50.35194 1.765345,-6.96953 7.51403,-25.96979 12.574358,-35.32348 5.06033,-9.35368 16.10611,-23.46174 22.55449,-29.99035 6.44838,-6.5286 13.47953,-11.8203 25.12235,-19.20268 11.64282,-7.38237 21.24782,-9.53459 29.52681,-12.83906 8.27898,-3.30446 18.32167,-4.94175 29.6879,-7.12197 11.36622,-2.18021 31.96095,-1.54511 31.96095,-1.54511 0,0 0.51928,-0.77258 9.01169,-2.02047 8.49241,-1.24789 21.28111,-1.5462 28.54636,-1.5462 7.26524,0 25.37268,2.20847 31.44809,4.01265 6.07541,1.80417 18.80208,5.7134 27.35756,9.30807 8.55548,3.59468 18.00869,9.40107 22.63101,13.30145 4.62232,3.90038 16.90829,13.81337 21.79418,19.43198 4.88589,5.61862 10.84437,12.23049 14.27096,19.22441 3.4266,6.99392 10.08085,17.58627 13.8194,27.80625 3.73856,10.21997 8.35892,26.03508 10.68316,33.8938 2.32424,7.85871 4.9225,19.64355 6.65395,29.80381 1.73144,10.16026 4.85548,25.75901 5.60742,32.00694 0.75192,6.24795 1.63801,9.75039 1.63801,9.75039 l 21.66183,0.0493 -0.17375,-263.093559 -386.001999,0.09565 0.138291,262.901835 z"
     id="path1240285"
     sodipodi:nodetypes="cssssssscssssssssssscccccc"
     inkscape:label="kumaraswamy" />
  <path
     style="opacity:0.510856;fill:#494680;fill-opacity:1;stroke:none;stroke-width:3;stroke-linecap:butt;stroke-linejoin:miter;stroke-miterlimit:10;stroke-dasharray:none;stroke-opacity:0.423442"
     d="m 179.76232,108.42011 c 0,0 0.98867,-6.27091 2.94527,-10.746709 2.87958,-6.58711 6.03829,-11.78444 9.28187,-15.83206 3.24358,-4.04762 6.44424,-6.75697 9.77685,-9.8863 2.87427,-2.69893 17.21772,-9.36556 20.22549,-10.64434 5.5229,-2.34811 12.48952,-5.24627 17.36347,-7.29515 7.82241,-3.1384 14.03135,-4.34732 18.81273,-8.84058 2.65378,-2.55183 3.43461,-3.33192 3.43461,-3.33192 0,0 0.84109,0.53443 3.10564,3.60599 5.4391,4.32317 13.55149,7.20905 18.68948,9.1889 5.03029,1.92329 12.06025,4.37582 16.81787,6.30363 4.75763,1.9278 11.63946,4.83706 15.01245,7.0443 3.37298,2.20724 7.57895,5.16306 11.45291,8.84324 3.87396,3.68018 8.87273,10.87016 11.66532,15.752 2.75888,4.8229 3.71455,9.341659 5.74463,16.670459 z"
     id="path1042955"
     sodipodi:nodetypes="csssscccccsssscc"
     inkscape:label="metalog3" />
  <path
     style="fill:none;stroke:#000000;stroke-width:0.5;stroke-linecap:butt;stroke-linejoin:miter;stroke-miterlimit:10;stroke-dasharray:0.5,1.5;stroke-opacity:0.637869;stroke-dashoffset:0"
     d="m 78.172069,303.51967 -9.077005,0.22278 -0.237298,-262.94253 386.125434,-0.317337 0.0402,263.090867 -7.61675,0.0181 c 0,0 -0.40908,-7.94184 -1.39045,-18.04729 -0.98138,-10.10546 -1.69364,-22.8545 -3.44328,-32.14517 -1.74964,-9.29066 -4.04463,-24.51585 -6.21614,-33.08524 -2.17152,-8.56938 -3.12601,-15.74904 -6.63771,-24.55816 -3.51169,-8.80913 -6.59014,-16.50713 -11.0674,-23.41807 -4.47725,-6.91094 -10.66319,-15.11037 -16.50657,-21.55046 -5.84339,-6.44008 -16.77471,-14.00933 -23.09384,-18.48899 -6.31912,-4.47967 -16.24818,-8.82684 -23.94079,-12.56219 -7.6926,-3.73534 -18.68347,-7.17013 -27.34287,-9.00937 -8.6594,-1.83923 -11.34823,-2.93606 -21.46413,-3.81958 -10.1159,-0.88352 -16.82526,-1.49536 -27.18664,-2.21357 -10.36137,-0.7182 -18.91334,-0.24315 -29.68294,-0.24315 -10.7696,0 -23.85817,1.02906 -31.71662,2.1876 -7.85846,1.15854 -17.5805,3.67335 -27.37173,5.57872 -9.79122,1.90538 -20.03906,6.62392 -28.89699,10.9507 -8.85793,4.32677 -21.30086,11.23744 -25.82837,15.43411 -4.5275,4.19666 -13.68219,12.47952 -18.5383,17.88945 -4.85611,5.40993 -9.04343,11.83143 -13.12755,18.33135 -4.084131,6.49993 -6.493151,14.20051 -9.556501,21.95673 -3.06335,7.75622 -6.1511,19.98415 -8.24559,29.62242 -2.09449,9.63827 -4.14968,19.16244 -5.20623,29.08665 -1.05655,9.92423 -2.27729,26.39617 -2.627,33.37929 -0.0562,7.07698 0.09732,8.25978 -0.14691,14.65239 z"
     id="path1418905"
     sodipodi:nodetypes="ccccccssssssssssssssssssssscc"
     inkscape:label="beta" />
</svg>
