<?xml version="1.0" encoding="UTF-8" standalone="no"?>
<svg
   class="svglite"
   width="504.00pt"
   height="360.00pt"
   viewBox="0 0 504.00 360.00"
   version="1.1"
   id="svg113856"
   sodipodi:docname="unbounded_final.svg"
   inkscape:version="1.2.2 (1:1.2.2+202305151915+b0a8486541)"
   inkscape:export-filename="unbounded_final.png"
   inkscape:export-xdpi="200"
   inkscape:export-ydpi="200"
   xmlns:inkscape="http://www.inkscape.org/namespaces/inkscape"
   xmlns:sodipodi="http://sodipodi.sourceforge.net/DTD/sodipodi-0.dtd"
   xmlns="http://www.w3.org/2000/svg"
   xmlns:svg="http://www.w3.org/2000/svg">
  <sodipodi:namedview
     id="namedview113858"
     pagecolor="#ffffff"
     bordercolor="#666666"
     borderopacity="1.0"
     inkscape:showpageshadow="2"
     inkscape:pageopacity="0.0"
     inkscape:pagecheckerboard="0"
     inkscape:deskcolor="#d1d1d1"
     inkscape:document-units="pt"
     showgrid="false"
     inkscape:zoom="2.6477384"
     inkscape:cx="211.31242"
     inkscape:cy="137.8535"
     inkscape:window-width="1920"
     inkscape:window-height="1043"
     inkscape:window-x="1920"
     inkscape:window-y="0"
     inkscape:window-maximized="1"
     inkscape:current-layer="layer1" />
  <defs
     id="defs76812">
    <style
       type="text/css"
       id="style76810"><![CDATA[
    .svglite line, .svglite polyline, .svglite polygon, .svglite path, .svglite rect, .svglite circle {
      fill: none;
      stroke: #000000;
      stroke-linecap: round;
      stroke-linejoin: round;
      stroke-miterlimit: 10.00;
    }
    .svglite text {
      white-space: pre;
    }
  ]]></style>
    <clipPath
       id="cpMC4wMHw1MDQuMDB8MC4wMHwzNjAuMDA=-6">
      <rect
         x="0"
         y="0"
         width="504"
         height="360"
         id="rect8" />
    </clipPath>
    <clipPath
       id="cpMC4wMHw1MDQuMDB8MC4wMHwzNjAuMDA=-7">
      <rect
         x="0"
         y="0"
         width="504"
         height="360"
         id="rect8-5" />
    </clipPath>
    <clipPath
       id="cpMC4wMHw1MDQuMDB8MC4wMHwzNjAuMDA=-5">
      <rect
         x="0"
         y="0"
         width="504"
         height="360"
         id="rect8-6" />
    </clipPath>
    <clipPath
       id="cpMC4wMHw1MDQuMDB8MC4wMHwzNjAuMDA=-67">
      <rect
         x="0"
         y="0"
         width="504"
         height="360"
         id="rect1038" />
    </clipPath>
    <clipPath
       id="cpMC4wMHw1MDQuMDB8MC4wMHwzNjAuMDA=-9">
      <rect
         x="0"
         y="0"
         width="504"
         height="360"
         id="rect7063" />
    </clipPath>
    <clipPath
       id="cpMC4wMHw1MDQuMDB8MC4wMHwzNjAuMDA=-1">
      <rect
         x="0"
         y="0"
         width="504"
         height="360"
         id="rect583704" />
    </clipPath>
  </defs>
  <path
     style="fill:none;stroke:#000000;stroke-width:0.2;stroke-linecap:butt;stroke-linejoin:miter;stroke-dasharray:0.2,0.2;stroke-dashoffset:0;stroke-opacity:1"
     d="m 49.365492,93.171511 c 433.524148,0 433.763288,0 433.763288,0"
     id="path583621" />
  <path
     style="fill:none;stroke:#000000;stroke-width:0.2;stroke-linecap:butt;stroke-linejoin:miter;stroke-dasharray:0.2,0.2;stroke-dashoffset:0;stroke-opacity:1"
     d="M 262.04206,307.8275 V 32.693553 l 0.22525,-0.95046"
     id="path2065" />
  <rect
     width="100%"
     height="100%"
     style="fill:none;stroke:none"
     id="rect76814"
     sodipodi:insensitive="true"
     x="0"
     y="0" />
  <defs
     id="defs76819">
    <clipPath
       id="cpMC4wMHw1MDQuMDB8MC4wMHwzNjAuMDA=">
      <rect
         x="0.00"
         y="0.00"
         width="504.00"
         height="360.00"
         id="rect76816" />
    </clipPath>
  </defs>
  <defs
     id="defs76826">
    <clipPath
       id="cpNDkuNjF8NDc0LjExfDI5Ljg5fDMwNS40Mw==">
      <rect
         x="49.61"
         y="29.89"
         width="424.50"
         height="275.54"
         id="rect76823" />
    </clipPath>
  </defs>
  <g
     clip-path="url(#cpMC4wMHw1MDQuMDB8MC4wMHwzNjAuMDA=)"
     id="g113854"
     inkscape:label="_plotlabels"
     sodipodi:insensitive="true">
    <text
       x="46.75"
       y="46.5"
       text-anchor="end"
       style="font-size:11.5px;font-family:'Roboto Condensed';fill:#4d4d4d"
       textLength="5.6700001"
       lengthAdjust="spacingAndGlyphs"
       id="text113828">0</text>
    <text
       x="46.75"
       y="96.599998"
       text-anchor="end"
       style="font-size:11.5px;font-family:'Roboto Condensed';fill:#4d4d4d"
       textLength="5.6700001"
       lengthAdjust="spacingAndGlyphs"
       id="text113830">1</text>
    <text
       x="46.75"
       y="146.7"
       text-anchor="end"
       style="font-size:11.5px;font-family:'Roboto Condensed';fill:#4d4d4d"
       textLength="5.6700001"
       lengthAdjust="spacingAndGlyphs"
       id="text113832">2</text>
    <text
       x="46.75"
       y="196.8"
       text-anchor="end"
       style="font-size:11.5px;font-family:'Roboto Condensed';fill:#4d4d4d"
       textLength="5.6700001"
       lengthAdjust="spacingAndGlyphs"
       id="text113834">3</text>
    <text
       x="46.75"
       y="246.89"
       text-anchor="end"
       style="font-size:11.5px;font-family:'Roboto Condensed';fill:#4d4d4d"
       textLength="5.6700001"
       lengthAdjust="spacingAndGlyphs"
       id="text113836">4</text>
    <text
       x="46.75"
       y="296.98999"
       text-anchor="end"
       style="font-size:11.5px;font-family:'Roboto Condensed';fill:#4d4d4d"
       textLength="5.6700001"
       lengthAdjust="spacingAndGlyphs"
       id="text113838">5</text>
    <text
       x="68.910004"
       y="316.47"
       text-anchor="middle"
       style="font-size:11.5px;font-family:'Roboto Condensed';fill:#4d4d4d"
       textLength="17.219999"
       lengthAdjust="spacingAndGlyphs"
       id="text113840">-1.0</text>
    <text
       x="165.39"
       y="316.47"
       text-anchor="middle"
       style="font-size:11.5px;font-family:'Roboto Condensed';fill:#4d4d4d"
       textLength="17.219999"
       lengthAdjust="spacingAndGlyphs"
       id="text113842">-0.5</text>
    <text
       x="261.85999"
       y="316.47"
       text-anchor="middle"
       style="font-size:11.5px;font-family:'Roboto Condensed';fill:#4d4d4d"
       textLength="14.37"
       lengthAdjust="spacingAndGlyphs"
       id="text113844">0.0</text>
    <text
       x="358.34"
       y="316.47"
       text-anchor="middle"
       style="font-size:11.5px;font-family:'Roboto Condensed';fill:#4d4d4d"
       textLength="14.37"
       lengthAdjust="spacingAndGlyphs"
       id="text113846">0.5</text>
    <text
       x="454.82001"
       y="316.47"
       text-anchor="middle"
       style="font-size:11.5px;font-family:'Roboto Condensed';fill:#4d4d4d"
       textLength="14.37"
       lengthAdjust="spacingAndGlyphs"
       id="text113848">1.0</text>
    <text
       x="474.10999"
       y="328.19"
       text-anchor="end"
       style="font-style:normal;font-variant:normal;font-weight:normal;font-stretch:normal;font-size:9px;font-family:'Roboto Condensed';-inkscape-font-specification:'Roboto Condensed, Normal';font-variant-ligatures:normal;font-variant-caps:normal;font-variant-numeric:normal;font-variant-east-asian:normal;text-anchor:end;white-space:pre"
       textLength="16.709999"
       lengthAdjust="spacingAndGlyphs"
       id="text113850"
       transform="matrix(1.9589304,0,0,1,-454.44204,0)"><tspan
         sodipodi:role="line"
         id="tspan584833"
         x="474.10999"
         y="328.19">Skewness</tspan></text>
    <text
       transform="matrix(0,-2.5258318,1,0,36.29,29.644616)"
       text-anchor="end"
       style="font-style:normal;font-variant:normal;font-weight:normal;font-stretch:normal;font-size:9px;font-family:'Roboto Condensed';-inkscape-font-specification:'Roboto Condensed, Normal';font-variant-ligatures:normal;font-variant-caps:normal;font-variant-numeric:normal;font-variant-east-asian:normal;text-anchor:end;white-space:pre"
       textLength="10.9"
       lengthAdjust="spacingAndGlyphs"
       id="text113852"><tspan
         sodipodi:role="line"
         id="tspan584831"
         x="0"
         y="0">Kurtosis</tspan></text>
  </g>
  <path
     id="path581367"
     style="opacity:0.98;mix-blend-mode:multiply;fill:#5f665a;fill-opacity:0.5;stroke:none;stroke-width:1.79774;stroke-linecap:round;stroke-linejoin:round;stroke-miterlimit:10;stroke-opacity:0.557677;paint-order:stroke fill markers"
     d="m 429.97454,183.1281 c 0,47.12563 -75.12109,85.32851 -167.78766,85.32851 -92.66657,0 -167.787653,-38.20288 -167.787653,-85.32851 0,-2.94535 0.293442,-5.85585 0.866269,-8.72434 0.572827,-2.8685 1.425039,-5.69499 2.54258,-8.47233 1.117541,-2.77734 2.500414,-5.50553 4.134554,-8.17742 1.63414,-2.67189 3.51955,-5.28747 5.64218,-7.83961 2.12263,-2.55214 4.48248,-5.04084 7.06548,-7.45893 2.583,-2.4181 5.38917,-4.7656 8.40443,-7.03535 3.01527,-2.26975 6.23964,-4.46176 9.65905,-6.56887 3.41941,-2.10712 7.03387,-4.12934 10.82932,-6.05951 3.79545,-1.93018 7.77189,-3.76832 11.91526,-5.50726 4.14337,-1.73895 8.45368,-3.3787 12.91686,-4.91212 4.46318,-1.53341 9.07923,-2.96049 13.83411,-4.27408 4.75488,-1.31358 9.64857,-2.51368 14.66703,-3.59315 5.01846,-1.07946 9.85906,-2.1128 15.25351,-3.16381 5.22108,-1.01723 8.91114,-1.391739 16.91835,-2.916187 7.51694,-1.431105 10.24899,-1.628235 16.51054,-2.844412 5.54443,-1.076893 7.79689,-0.979987 16.77379,-2.583176 10.44494,1.671554 11.91152,1.784155 17.49857,2.611978 5.93894,0.879961 12.21499,1.872265 18.08409,2.88981 5.41007,0.93796 9.24867,1.701287 14.4598,2.768297 5.40574,1.10686 10.10395,2.15804 15.12241,3.2375 5.01846,1.07946 9.91216,2.27957 14.66703,3.59315 4.75488,1.31359 9.37094,2.74067 13.83412,4.27408 4.46318,1.53342 8.77348,3.17317 12.91685,4.91212 4.14337,1.73894 8.11981,3.57708 11.91526,5.50725 3.79545,1.93018 7.40991,3.9524 10.82933,6.05952 3.41941,2.10711 6.64378,4.29912 9.65904,6.56887 3.01527,2.26975 5.82143,4.61725 8.40444,7.03535 2.583,2.41809 4.94284,4.90678 7.06547,7.45892 2.12263,2.55214 4.00805,5.16773 5.64219,7.83962 1.63414,2.67189 3.01701,5.40008 4.13455,8.17742 1.11754,2.77734 1.96975,5.60383 2.54258,8.47233 0.57283,2.86849 0.86627,5.77899 0.86627,8.72434 z"
     sodipodi:nodetypes="sssssssssssssssssscssssssssssssssss"
     inkscape:label="myerson4" />
  <path
     style="display:inline;fill:#c6e9af;fill-opacity:0.5;stroke:none;stroke-width:2;stroke-linecap:butt;stroke-linejoin:miter;stroke-dasharray:none;stroke-opacity:0.557677"
     d="m 255.77113,308.48382 c 0,0 -178.492568,0.0318 -183.912195,0.24727 0.1256,-10.70842 2.655822,-48.66814 4.444654,-63.80023 1.577445,-13.34392 3.999848,-39.10457 12.611636,-64.95107 8.611788,-25.84649 22.001585,-40.34017 38.541835,-54.60409 16.54026,-14.26392 41.46257,-22.25187 60.20871,-27.392947 25.0316,-6.864842 47.42801,-6.545428 57.61566,-4.661339 19.09946,-1.548222 19.30115,-1.392094 32.68462,-0.25734 8.25815,-0.166786 24.69182,5.644402 36.14181,12.503666 10.35433,6.2029 27.52372,20.77322 36.01861,31.13737 8.49489,10.36415 18.69132,27.81241 23.88666,39.81183 5.73465,13.24506 11.66329,26.37781 17.45874,50.2603 4.8998,21.12574 12.49929,51.40952 15.50855,80.857 -7.00342,-0.0469 -129.29806,0.98746 -151.20929,0.84957 z"
     id="path113860"
     inkscape:label="GLDcsw_chipos"
     sodipodi:nodetypes="ccszzsccsssccsc" />
  <path
     style="display:inline;fill:#ffd6d6;fill-opacity:0.5;stroke:none;stroke-width:2;stroke-linecap:butt;stroke-linejoin:miter;stroke-dasharray:none;stroke-opacity:0.666101"
     d="m 297.84799,308.70249 -181.57913,-0.49402 c 0,0 7.23139,-39.07528 11.44873,-60.75422 4.25143,-21.85417 21.16987,-72.80026 31.06711,-87.93363 12.431,-19.00763 28.10295,-38.47959 43.10849,-48.28538 11.83086,-7.73121 34.49926,-17.569537 44.99939,-17.595828 15.11665,-1.76534 15.21736,-1.577501 31.16662,-0.20902 14.40213,-0.8737 15.87728,-2.086087 30.15445,-0.56944 16.96279,1.801937 25.42972,3.747433 42.13342,8.400938 16.18021,4.50766 28.46261,11.63963 41.04441,19.89873 12.58181,8.25909 18.6748,14.05784 29.35226,29.87487 10.67748,15.81702 16.10519,32.44713 19.93174,49.06013 3.82655,16.61301 6.23285,36.32353 7.30619,47.33958 1.16512,11.95805 2.43152,44.65767 3.36492,59.61037 -36.24093,0.31758 -130.17274,1.85181 -153.4986,1.65692 z"
     id="path114342"
     sodipodi:nodetypes="ccsssccsssssscc"
     inkscape:label="GLDcsw_chineg" />
  <g
     id="layer1"
     inkscape:label="labelsGLD"
     transform="translate(3.1606199,-1.9950983)">
    <text
       x="117.15"
       y="146.53"
       text-anchor="middle"
       style="font-style:normal;font-variant:normal;font-weight:normal;font-stretch:normal;font-size:8.99455px;font-family:'Roboto Condensed';-inkscape-font-specification:'Roboto Condensed, Normal';font-variant-ligatures:normal;font-variant-caps:normal;font-variant-numeric:normal;font-variant-east-asian:normal;text-anchor:middle;white-space:pre;fill:#52804c;fill-opacity:1"
       textLength="68.330002"
       lengthAdjust="spacingAndGlyphs"
       id="text37018"
       transform="matrix(0.59956888,0,0,1.0775838,6.7944352,105.48544)"
       inkscape:label="lbl-GLD-left"><tspan
         sodipodi:role="line"
         id="tspan38176"
         x="117.15"
         y="146.53"
         style="font-style:normal;font-variant:normal;font-weight:normal;font-stretch:normal;font-size:8.99455px;font-family:'Roboto Condensed';-inkscape-font-specification:'Roboto Condensed, Normal';font-variant-ligatures:normal;font-variant-caps:normal;font-variant-numeric:normal;font-variant-east-asian:normal;display:inline;fill:#52804c;fill-opacity:1">GLDcsw (ξ&gt;0)</tspan></text>
    <text
       x="406.57999"
       y="146.53"
       text-anchor="middle"
       style="font-style:normal;font-variant:normal;font-weight:normal;font-stretch:normal;font-size:8.64204px;font-family:'Roboto Condensed';-inkscape-font-specification:'Roboto Condensed, Normal';font-variant-ligatures:normal;font-variant-caps:normal;font-variant-numeric:normal;font-variant-east-asian:normal;text-anchor:middle;white-space:pre;fill:#d35d5d;fill-opacity:1"
       textLength="68.160004"
       lengthAdjust="spacingAndGlyphs"
       id="text37020"
       transform="matrix(0.60110338,0.01944968,0,1.0601718,199.21338,102.91658)"
       inkscape:label="lbl-GLD-right"><tspan
         sodipodi:role="line"
         id="tspan38174"
         x="406.57999"
         y="146.53">GLDcsw (ξ&lt;0)</tspan></text>
    <text
       x="406.57999"
       y="146.53"
       text-anchor="middle"
       style="font-style:normal;font-variant:normal;font-weight:normal;font-stretch:normal;font-size:7.43607px;font-family:'Roboto Condensed';-inkscape-font-specification:'Roboto Condensed, Normal';font-variant-ligatures:normal;font-variant-caps:normal;font-variant-numeric:normal;font-variant-east-asian:normal;text-anchor:middle;white-space:pre;fill:#3771c8;fill-opacity:1;stroke:none;stroke-opacity:1"
       textLength="68.160004"
       lengthAdjust="spacingAndGlyphs"
       id="text3110"
       transform="matrix(0.67806643,-0.00780842,0,1.4385141,-151.10624,121.66819)"
       inkscape:label="lbl-logitMyerson"><tspan
         sodipodi:role="line"
         id="tspan3112"
         x="406.57999"
         y="146.53">LogitMyerson</tspan></text>
    <text
       x="406.57999"
       y="146.53"
       text-anchor="middle"
       style="font-style:normal;font-variant:normal;font-weight:normal;font-stretch:normal;font-size:6.74584px;font-family:'Roboto Condensed';-inkscape-font-specification:'Roboto Condensed, Normal';font-variant-ligatures:normal;font-variant-caps:normal;font-variant-numeric:normal;font-variant-east-asian:normal;text-anchor:middle;white-space:pre;fill:#7137c8;fill-opacity:1;stroke:none;stroke-opacity:1"
       textLength="68.160004"
       lengthAdjust="spacingAndGlyphs"
       id="text3116"
       transform="matrix(0.74860417,0,0,1.5387456,39.761035,113.05447)"
       inkscape:label="lbl-cauchyMyerson"><tspan
         sodipodi:role="line"
         id="tspan3118"
         x="406.57999"
         y="146.53">CauchyMyerson</tspan></text>
    <text
       x="406.57999"
       y="146.53"
       text-anchor="middle"
       style="font-style:normal;font-variant:normal;font-weight:normal;font-stretch:normal;font-size:6.26437px;font-family:'Roboto Condensed';-inkscape-font-specification:'Roboto Condensed, Normal';font-variant-ligatures:normal;font-variant-caps:normal;font-variant-numeric:normal;font-variant-east-asian:normal;text-anchor:middle;white-space:pre;fill:#f68dc1;fill-opacity:0.960784;stroke:none;stroke-width:1.04406;stroke-dasharray:none;stroke-opacity:1"
       textLength="68.160004"
       lengthAdjust="spacingAndGlyphs"
       id="text5053"
       transform="matrix(0.89151288,0,0,1.5472235,1.6913546,101.76932)"
       inkscape:label="lbl-TukeyMyerson-05"><tspan
         sodipodi:role="line"
         id="tspan5197"
         x="406.57999"
         y="146.53">TukeyMyerson(-0.5)</tspan></text>
    <text
       x="406.57999"
       y="146.53"
       text-anchor="middle"
       style="font-style:normal;font-variant:normal;font-weight:normal;font-stretch:normal;font-size:7.43607px;font-family:'Roboto Condensed';-inkscape-font-specification:'Roboto Condensed, Normal';font-variant-ligatures:normal;font-variant-caps:normal;font-variant-numeric:normal;font-variant-east-asian:normal;text-anchor:middle;white-space:pre;fill:#4daf4a;fill-opacity:1;stroke:none;stroke-opacity:1"
       textLength="68.160004"
       lengthAdjust="spacingAndGlyphs"
       id="text5057"
       transform="matrix(0.67370765,-0.00763926,0,1.4073513,116.76227,115.75534)"
       inkscape:label="lbl-sechMyerson"><tspan
         sodipodi:role="line"
         id="tspan5268"
         x="406.57999"
         y="146.53">SechMyerson</tspan></text>
    <text
       x="406.57999"
       y="146.53"
       text-anchor="middle"
       style="font-style:normal;font-variant:normal;font-weight:normal;font-stretch:normal;font-size:9.22435px;font-family:'Roboto Condensed';-inkscape-font-specification:'Roboto Condensed, Normal';font-variant-ligatures:normal;font-variant-caps:normal;font-variant-numeric:normal;font-variant-east-asian:normal;text-anchor:middle;white-space:pre;fill:#d95758;fill-opacity:1;stroke:none;stroke-opacity:1"
       textLength="68.160004"
       lengthAdjust="spacingAndGlyphs"
       id="text5272"
       transform="matrix(0.45937832,-0.00637409,0,1.1742731,-80.105734,150.01689)"
       inkscape:label="lbl-normalMyerson"><tspan
         sodipodi:role="line"
         id="tspan584752"
         x="406.57999"
         y="146.53">Myerson</tspan></text>
    <text
       x="406.57999"
       y="146.53"
       text-anchor="middle"
       style="font-style:normal;font-variant:normal;font-weight:normal;font-stretch:normal;font-size:12.8773px;font-family:'Roboto Condensed';-inkscape-font-specification:'Roboto Condensed, Normal';font-variant-ligatures:normal;font-variant-caps:normal;font-variant-numeric:normal;font-variant-east-asian:normal;text-anchor:middle;white-space:pre;fill:#ff7f00;fill-opacity:1"
       textLength="68.160004"
       lengthAdjust="spacingAndGlyphs"
       id="text5623"
       transform="matrix(0.46031982,0.01569449,0,0.85548246,109.14078,-27.159185)"
       inkscape:label="Gumbel"><tspan
         sodipodi:role="line"
         id="tspan5625"
         x="406.57999"
         y="146.53">Gumbel</tspan></text>
    <text
       x="406.57999"
       y="146.53"
       text-anchor="middle"
       style="font-style:normal;font-variant:normal;font-weight:normal;font-stretch:normal;font-size:12.8773px;font-family:'Roboto Condensed';-inkscape-font-specification:'Roboto Condensed, Normal';font-variant-ligatures:normal;font-variant-caps:normal;font-variant-numeric:normal;font-variant-east-asian:normal;text-anchor:middle;white-space:pre;fill:#5e665a;fill-opacity:1"
       textLength="68.160004"
       lengthAdjust="spacingAndGlyphs"
       id="text582316"
       transform="matrix(0.45311589,0.01424722,0,0.77659382,246.88889,15.671434)"
       inkscape:label="lbl-Metalog4"><tspan
         sodipodi:role="line"
         id="tspan582374"
         x="406.57999"
         y="146.53">Metalog4</tspan></text>
    <path
       style="fill:none;stroke:#5e665a;stroke-width:0.75px;stroke-linecap:butt;stroke-linejoin:miter;stroke-opacity:0.50207919"
       d="m 408.06687,143.16701 10.75574,-8.6628 c 17.03096,0.083 5.1104,-0.19612 22.25837,0.28977"
       id="path582372"
       sodipodi:nodetypes="ccc"
       transform="translate(-3.1606199,1.9950983)" />
    <text
       x="406.57999"
       y="146.53"
       text-anchor="middle"
       style="font-style:normal;font-variant:normal;font-weight:normal;font-stretch:normal;font-size:12.8773px;font-family:'Roboto Condensed';-inkscape-font-specification:'Roboto Condensed, Normal';font-variant-ligatures:normal;font-variant-caps:normal;font-variant-numeric:normal;font-variant-east-asian:normal;text-anchor:middle;white-space:pre;fill:#252375;fill-opacity:0.964706"
       textLength="68.160004"
       lengthAdjust="spacingAndGlyphs"
       id="text584047"
       transform="matrix(0.45763343,0.01424722,0,0.77659381,174.36171,-20.016625)"
       inkscape:label="lbl-Metalog3"><tspan
         id="tspan584051"
         sodipodi:role="line"
         x="406.57999"
         y="146.53">Metalog3</tspan></text>
    <path
       style="fill:none;stroke:#252375;stroke-width:0.75px;stroke-linecap:butt;stroke-linejoin:miter;stroke-opacity:0.50242102"
       d="m 334.30375,109.72304 10.75574,-8.6628 c 17.03096,0.083 5.1104,-0.19612 22.25837,0.28977"
       id="path584049"
       sodipodi:nodetypes="ccc" />
  </g>
  <polyline
     points="181.44,107.85 342.28,107.85 "
     style="fill:none;stroke:#11126e;stroke-width:1.07;stroke-linecap:butt;stroke-linejoin:round;stroke-miterlimit:10;stroke-opacity:0.85488474"
     id="polyline583716"
     transform="translate(-0.04728969,-0.21787623)"
     inkscape:label="metalog3" />
  <path
     id="polyline567"
     style="fill:none;stroke:#662eb6;stroke-width:1.5;stroke-linecap:round;stroke-linejoin:round;stroke-miterlimit:10;stroke-dasharray:none;stroke-opacity:1"
     inkscape:label="cauchyMyerson"
     d="m 161.22895,307.82283 c 0,0 0.41427,-5.32274 3.92642,-18.05548 3.51215,-12.73274 6.04163,-26.62587 9.64,-37.44 3.59837,-10.81413 5.47837,-16.20917 9.65,-28.9 4.17163,-12.69083 15.99042,-36.39606 24.56707,-47.85166 8.57666,-11.45559 16.90873,-21.67241 30.57152,-28.25463 13.66279,-6.58222 27.38541,-7.48501 41.06612,-0.97339 13.68071,6.51162 26.12858,19.59935 35.47615,32.63383 9.34758,13.03449 17.9014,32.67314 22.67914,44.44585 4.77774,11.77271 5.79607,17.30362 9.65,28.9 3.85393,11.59638 6.52169,25.0947 9.65,37.44 3.12831,12.3453 4.35828,17.71935 4.35828,17.71935"
     sodipodi:nodetypes="czzzzzzzzzzc" />
  <path
     id="polyline1843"
     style="fill:none;stroke:#5979b6;stroke-width:1.5;stroke-linecap:round;stroke-linejoin:round;stroke-miterlimit:10;stroke-dasharray:none;stroke-opacity:1"
     inkscape:label="logitMyerson"
     d="m 107.5368,308.13264 c 0,0 7.04703,-37.92722 10.35773,-51.6126 3.3107,-13.68538 5.44507,-19.96024 11.39674,-38.76084 5.95167,-18.80059 13.05148,-33.4456 21.55269,-46.3787 8.5012,-12.9331 8.15161,-13.72228 24.93057,-30.00046 8.38948,-8.13909 19.94327,-15.58683 27.36456,-19.65162 8.48024,-4.64478 24.07206,-9.79146 33.98931,-11.88892 9.91725,-2.09745 35.55859,-4.02062 50.64265,0.0318 9.51996,2.10527 19.62021,5.95754 28.71005,10.29951 9.08984,4.34197 17.16926,9.17363 22.64758,13.2377 12.56888,9.70669 21.26357,18.35038 29.60585,30.00157 7.83667,11.06399 15.06331,25.08065 22.80724,43.05054 7.74393,17.96988 11.31671,31.72667 15.78276,50.05946 3.31268,13.68537 9.8988,50.74274 9.8988,50.74274"
     sodipodi:nodetypes="czzzsszcscczcc" />
  <path
     id="polyline1050"
     style="fill:none;stroke:#d95758;stroke-width:1.5;stroke-linecap:round;stroke-linejoin:round;stroke-miterlimit:10;stroke-dasharray:none;stroke-opacity:1"
     d="m 101.0746,308.09705 c 1.99274,-12.85386 4.63385,-30.02736 6.31289,-38.22193 3.35808,-16.38914 6.60153,-30.11553 9.90072,-41.15844 5.19858,-17.13851 11.40371,-33.28624 19.29,-48.11 5.69135,-10.47986 12.85109,-21.38826 19.3,-28.7 8.43311,-9.32719 19.44793,-19.46181 28.94,-25.61 9.09095,-5.86266 19.47999,-10.73481 28.94,-14.05 12.42225,-4.20619 28.20657,-6.79981 38.59,-7.62 10.38343,-0.82019 10.03003,-1.22121 18.31951,-0.66162 8.28948,0.55959 11.8029,1.09062 18.61852,2.28549 6.74613,1.18269 14.81626,3.53492 19.97148,5.33451 14.19317,4.99909 28.45906,12.93978 39.57049,21.63162 7.24142,5.74855 13.81924,12.22799 19.3,18.69 20.67302,25.73865 33.87088,59.50102 38.59,76.81 2.82963,10.41024 7.62821,28.38254 11.7433,50.38498 2.05754,11.00122 3.19327,20.65248 4.55957,28.25276"
     sodipodi:nodetypes="csccccczzsccccsc"
     inkscape:label="normalMyerson" />
  <path
     id="polyline1054"
     style="fill:none;stroke:#4daf4a;stroke-width:1.5;stroke-linecap:round;stroke-linejoin:round;stroke-miterlimit:10;stroke-dasharray:none"
     d="m 113.81085,308.11506 c 1.99735,-12.6861 2.08557,-14.56047 3.74616,-22.86608 5.05361,-24.7168 11.01319,-48.22263 19.29,-70.42 5.4721,-14.41658 11.77255,-27.98974 19.3,-40.33 5.80867,-9.37154 12.25019,-17.98789 19.29,-25.52 6.06627,-6.40342 12.58575,-12.06418 19.3,-16.82 6.27033,-4.38134 12.80517,-8.07628 19.29,-11.02 6.42025,-2.8724 12.96051,-5.10659 19.3,-6.72 6.63173,-1.6426 14.0371,-2.859 19.29,-3.19 4.82636,-0.29429 14.47197,-0.29409 19.3,0 6.87645,0.51457 13.04214,1.6175 19.3,3.19 6.80604,1.74442 13.35987,4.05411 19.29,6.72 7.19556,3.28862 14.71283,7.61452 19.3,11.02 10.68767,7.94971 21.86331,18.93105 28.94,28.23 11.62197,15.26476 20.538,33.65667 28.94,54.44 6.4454,17.29923 11.23955,35.04364 14.3393,50.55082 2.39515,12.11982 6.84685,41.75512 6.84685,41.75512"
     sodipodi:nodetypes="ccccccccccccccccc"
     inkscape:label="sechMyerson" />
  <path
     id="polyline1058"
     style="fill:none;stroke:#f781bf;stroke-width:1.07;stroke-linecap:round;stroke-linejoin:round;stroke-miterlimit:10"
     d="m 136.8587,308.13048 c 5.1527,-24.95371 11.59788,-54.40708 19.28831,-76.9315 5.50801,-15.79888 11.71867,-30.79971 19.29,-44.56 7.86832,-14.22724 16.54783,-25.8215 28.95,-38.08 6.19845,-5.83951 12.2888,-10.12483 19.29,-13.99 6.2991,-3.40684 12.85067,-6.0093 19.3,-7.69 6.49971,-1.64064 13.06889,-2.44519 19.29,-2.46 3.22309,0 6.4267,0.20082 9.65,0.61 6.81212,0.89904 13.39469,2.67239 19.3,5 7.04681,2.83036 13.61285,6.57701 19.29,10.65 7.32185,5.32843 13.86147,11.59029 19.3,17.85 7.63248,8.9143 14.10258,18.76725 19.29,28.11 8.01434,14.65654 14.37813,30.27731 19.3,44.56 8.61156,25.18578 13.67446,49.03463 19.44032,76.17433"
     sodipodi:nodetypes="cccccccccccccc"
     inkscape:label="Tukey-05" />
  <circle
     cx="262.26703"
     cy="110.83898"
     r="1.95"
     style="fill:#4daf4a;stroke:none;stroke-width:0.71;stroke-linecap:round;stroke-linejoin:round;stroke-miterlimit:10"
     id="circle1064"
     inkscape:label="sech" />
  <circle
     cx="262.26703"
     cy="142.15898"
     r="1.95"
     style="fill:#662eb6;stroke:none;stroke-width:0.71;stroke-linecap:round;stroke-linejoin:round;stroke-miterlimit:10;fill-opacity:1"
     id="circle1066"
     inkscape:label="cauchy" />
  <circle
     cx="285.11703"
     cy="105.98898"
     r="1.95"
     style="fill:#ff7f00;stroke:none;stroke-width:0.71;stroke-linecap:round;stroke-linejoin:round;stroke-miterlimit:10"
     id="circle1068"
     inkscape:label="gumbel" />
  <circle
     cx="262.26703"
     cy="124.41899"
     r="1.95"
     style="fill:#f781bf;stroke:none;stroke-width:0.71;stroke-linecap:round;stroke-linejoin:round;stroke-miterlimit:10;fill-opacity:1"
     id="circle1070"
     inkscape:label="tukey05" />
  <circle
     cx="262.37332"
     cy="107.32866"
     r="1.95"
     style="fill:#5979b6;stroke:none;stroke-width:0.71;stroke-linecap:round;stroke-linejoin:round;stroke-miterlimit:10;fill-opacity:1"
     id="circle3841"
     inkscape:label="logistic" />
  <circle
     cx="262.35028"
     cy="103.59641"
     r="1.95"
     style="fill:#d95758;stroke:none;stroke-width:0.71;stroke-linecap:round;stroke-linejoin:round;stroke-miterlimit:10;fill-opacity:1"
     id="circle3843"
     inkscape:label="normal" />
</svg>
